PathFileType	4	(X/Y/Z)	jw_ngait_og1_rotated.trc
DataRate	CameraRate	NumFrames	NumMarkers	Units	OrigDataRate	OrigDataStartFrame	OrigNumFrames
120.000000	120.000000	4	56	mm	120.000000	123	327
Frame#	Times	Sternum			Neck			RShoulder			LShoulder			Xiphoid			Thoracic			RAsis			LAsis			RPsis			LPsis			Lumbar			RElbow			RWrist			RRadius			RUlna			LElbow			LWrist			LUlna			LRadius			LThighSuperior			LThighInferior			LThighLateral			LPatella			LShankSuperior			LShankInferior			LShankLateral			RThighSuperior			RThighInferior			RThighLateral			RPatella			RShankSuperior			RShankInferior			RShankLateral			RHeel			RToe			RMidfootMedial			RMidfootLateral			RHindfoot			RMidfootSuperior			RToeMedial			RToeLateral			LHeel			LToe			LMidfootMedial			LMidfootLateral			LHindfoot			LMidfootSuperior			LToeMedial			LToeLateral			LShoulderCenter			Oglobal			RShoulderCenter			Sacral			Xglobal			Yglobal			Zglobal			
		X1	Y1	Z1	X2	Y2	Z2	X3	Y3	Z3	X4	Y4	Z4	X5	Y5	Z5	X6	Y6	Z6	X7	Y7	Z7	X8	Y8	Z8	X9	Y9	Z9	X10	Y10	Z10	X11	Y11	Z11	X12	Y12	Z12	X13	Y13	Z13	X14	Y14	Z14	X15	Y15	Z15	X16	Y16	Z16	X17	Y17	Z17	X18	Y18	Z18	X19	Y19	Z19	X20	Y20	Z20	X21	Y21	Z21	X22	Y22	Z22	X23	Y23	Z23	X24	Y24	Z24	X25	Y25	Z25	X26	Y26	Z26	X27	Y27	Z27	X28	Y28	Z28	X29	Y29	Z29	X30	Y30	Z30	X31	Y31	Z31	X32	Y32	Z32	X33	Y33	Z33	X34	Y34	Z34	X35	Y35	Z35	X36	Y36	Z36	X37	Y37	Z37	X38	Y38	Z38	X39	Y39	Z39	X40	Y40	Z40	X41	Y41	Z41	X42	Y42	Z42	X43	Y43	Z43	X44	Y44	Z44	X45	Y45	Z45	X46	Y46	Z46	X47	Y47	Z47	X48	Y48	Z48	X49	Y49	Z49	X50	Y50	Z50	X51	Y51	Z51	X52	Y52	Z52	X53	Y53	Z53	X54	Y54	Z54	X55	Y55	Z55	X56	Y56	Z56	

123	1.975	398.11	1345.6	-162.47	527.07	1464.4	-162.38	475.87	1405.1	-340.48	473.16	1405.9	24.812	404.1	1229.2	-156.33	623.49	1275.4	-150.63	420.25	1007.4	-290.77	436.18	988.78	-16.825	640.28	988.47	-181.17	641.97	984.87	-121.37	635.12	1056.4	-155.25	567.45	1082.5	-426.96	487.32	827.5	-429.87	466.58	834.18	-396.52	534.36	827.12	-421.81	526.41	1080.2	97.334	451.6	815.87	94.659	502.22	812.69	93.26	441.13	839.79	57.975	444.97	814.39	22.881	340.06	586.06	-2.4927	326.21	709.17	-30.762	295.31	493.21	-57.06	397.03	458.34	-9.8285	590.17	290.45	-35.455	475.1	358.15	-84.92	465.6	810.34	-323	419.19	577.75	-269.63	383.01	675.26	-251.32	386.85	514.7	-220.29	488.85	388.71	-287.71	476.68	156.96	-235.39	435.9	259.32	-197.54	570.88	49.003	-192.68	273.39	44.8	-237.44	350.26	36.073	-172.76	379.38	41.852	-283.76	459.11	23.388	-272.92	399.73	107.28	-215.53	310.1	36.234	-189.3	319.24	41.483	-277.07	749.17	265.98	-66.226	534.42	56.904	-71.675	612.7	109.67	-127.1	616.83	112.49	-2.5594	697.66	172.97	-10.247	585.76	189.85	-65.77	573.42	80.925	-108.71	578.04	83.325	-20.506	499.04	1365.9	13.886	0	0	0	499.82	1365.8	-338.13	641.13	986.67	-151.27	200	0	0	0	0	-200	0	200	0
124	1.9833	387.66	1345.7	-161.73	516.24	1465.1	-162.34	464.05	1405.8	-340.02	463.41	1406.3	25.056	393.92	1229.5	-155.71	613.07	1276.1	-151.24	411.59	1007.2	-290.43	427.04	989.33	-17.042	630.46	989.32	-181.82	632.29	985.63	-121.96	626.08	1057.1	-154.96	555.63	1083.5	-427.94	475.29	828.65	-430.96	454.72	835.13	-397.58	522.66	828.17	-423.28	519.23	1080.8	96.849	446.46	815.98	93.433	497.07	812.78	92.011	435.95	839.64	57.234	433.12	816.32	22.349	323.13	590.38	-3.5432	312.39	713.42	-32.585	276.6	498.51	-57.809	376.76	460.82	-10.838	564.66	286.7	-35.963	451.87	357.23	-86.012	457.75	810.92	-323.41	414.25	577.29	-269.7	377	674.27	-251.62	383.35	513.62	-220.23	486.3	388.99	-287.66	475.75	157.2	-235.16	434.24	258.94	-197.56	571.36	49.425	-193.37	273.28	44.629	-237.5	350.89	35.631	-172.36	379.44	41.456	-283.5	458.88	23.437	-273.11	399.52	107.12	-215.46	309.85	35.92	-189.25	319.2	41.388	-277.11	723.37	253.5	-68.245	493.25	60.945	-67.996	576.11	105.23	-123.86	581.21	111.42	0.51859	666.19	165.72	-9.0407	555.29	188.9	-64.833	534.73	79.914	-105.23	540.33	83.913	-17.106	489.51	1366.2	14.074	0	0	0	488.3	1366.4	-337.94	631.38	987.48	-151.89	200	0	0	0	0	-200	0	200	0
125	1.9917	377.13	1345.8	-161.04	505.24	1465.5	-162.12	452.51	1406.5	-339.65	453.49	1406.4	25.422	383.49	1229.7	-155.14	602.71	1276.7	-151.93	401.76	1007.3	-290.68	417.83	989.81	-17.315	620.79	990.01	-182.48	622.83	986.29	-122.57	616.46	1057.7	-155.73	543.73	1084.5	-428.76	463.29	829.81	-432.02	442.4	836.07	-398.53	510.8	829.13	-424.51	512.12	1081.2	96.197	441.32	815.85	92.424	492.25	812.99	90.806	430.59	839.45	56.514	422.13	818.02	21.417	307.12	594.9	-4.3458	298.78	717.89	-33.768	258.12	504.37	-58.741	357.22	463.68	-11.326	538.65	282.61	-36.227	428.2	356.41	-86.37	449.8	811.39	-323.65	409.77	576.77	-269.68	371.11	673.13	-251.11	378.92	513.11	-220.53	483.66	389.05	-287.36	475.06	157.27	-235.15	431.97	258.91	-197.31	571.52	49.713	-193.54	273.22	44.418	-237.57	351.13	35.261	-172.18	379.49	41.147	-283.36	458.86	23.437	-273.09	399.26	106.96	-215.39	309.72	35.823	-189.21	319.1	41.339	-277.04	696.43	240.11	-70.563	453.7	63.638	-63.657	539.15	100.37	-120.53	545.59	110.19	3.5568	634.08	158.35	-8.2145	524.57	187.14	-64.146	495.95	79.053	-101.58	502.86	84.599	-13.509	479.69	1366.4	14.34	0	0	0	476.92	1367.2	-337.66	621.81	988.15	-152.53	200	0	0	0	0	-200	0	200	0
126	2	366.75	1345.9	-160.17	494.42	1465.9	-161.91	441.06	1406.9	-339.26	443.91	1406.4	25.777	373.2	1229.9	-154.56	592.5	1277.2	-152.56	391.43	1007.8	-290.83	408.64	990.14	-17.564	610.94	990.83	-182.94	613.16	986.93	-123	606.58	1058.5	-156.74	531.94	1085.2	-429.62	450.93	830.64	-433.02	431.25	836.68	-399.09	498.49	829.8	-425.7	505.43	1081.4	95.456	436.12	816.01	91.671	486.69	813.04	89.562	424.74	839.61	55.803	410.59	820.06	20.977	291.22	599.1	-5.2665	285.54	722.04	-34.801	239.87	509.04	-60.463	338.6	466.41	-11.851	512.91	277.94	-36.745	404.7	355.55	-86.389	438.6	810.04	-322.34	405.18	576.06	-269.66	365.19	671.8	-251.45	374.78	512.67	-220.77	481.22	389.15	-287.2	474.46	157.28	-235.1	431.01	259.13	-197.06	571.33	49.83	-193.44	273.21	44.223	-237.59	350.95	34.894	-172.35	379.41	41.108	-283.49	458.91	23.49	-273.17	399.03	106.77	-215.33	309.64	35.69	-189.16	319.11	41.226	-277.08	668.19	226.15	-72.497	414.85	65.889	-58.896	501.58	96.114	-118.28	510.26	107.43	5.5457	601.94	149.59	-8.0004	493.54	184.56	-63.168	457.04	78.155	-97.82	465.45	85.155	-9.8999	470.15	1366.6	14.7	0	0	0	465.57	1367.8	-337.28	612.05	988.88	-152.97	200	0	0	0	0	-200	0	200	0
